<svg preserveAspectRatio="none" width="100%" height="100%" overflow="visible" style="display: block;" viewBox="-6 -6 358 154" fill="none" xmlns="http://www.w3.org/2000/svg">
<defs>
<filter id="outline" x="-12" y="-12" width="370" height="166" filterUnits="userSpaceOnUse" color-interpolation-filters="sRGB">
<feMorphology in="SourceAlpha" operator="dilate" radius="6" result="dilated"/>
<feFlood flood-color="#F0EEE7" result="outline-color"/>
<feComposite in="outline-color" in2="dilated" operator="in" result="outline"/>
<feMerge>
<feMergeNode in="outline"/>
<feMergeNode in="SourceGraphic"/>
</feMerge>
</filter>
</defs>
<g id="LOGO PROOF" filter="url(#outline)">
<path fill-rule="evenodd" clip-rule="evenodd" d="M35.1523 31.4985C46.7319 30.603 56.6845 32.8169 65.6766 40.6322C73.7857 47.7428 78.7409 57.7994 79.449 68.5818C80.1759 79.4962 76.5992 90.2601 69.4893 98.5526C56.8806 112.985 36.6726 115.879 21.9462 102.816L21.9447 109.463L21.9722 141.996L0.134935 142L0.0812885 92.749C0.0709848 85.3349 -0.344999 70.412 0.809248 63.8329C1.81597 57.9791 4.12957 52.4305 7.57622 47.6018C14.2622 38.2642 23.1798 33.466 34.2894 31.568L35.1523 31.4985ZM57.6847 70.0065C56.9692 60.0479 48.3957 52.5246 38.4635 53.1385C31.9462 53.5416 26.1465 57.4264 23.2762 63.3119C20.406 69.1975 20.9081 76.1725 24.5898 81.5845C28.2716 86.9964 34.5664 90.0064 41.0743 89.4683C50.9912 88.6459 58.4005 79.9653 57.6847 70.0065Z" fill="#0F0F0F"/>
<path fill-rule="evenodd" clip-rule="evenodd" d="M250.56 31.74C272.299 28.3932 292.622 43.3803 295.93 65.1979C299.239 87.0184 284.28 107.393 262.528 110.682C240.817 113.972 220.555 98.9876 217.252 77.2101C213.95 55.428 228.855 35.0808 250.56 31.74ZM274.449 68.9742C273.235 58.9926 264.171 51.8996 254.229 53.1452C244.323 54.3863 237.286 63.437 238.497 73.3784C239.707 83.3199 248.711 90.4069 258.623 89.2186C268.57 88.0259 275.663 78.9499 274.449 68.9742Z" fill="#0F0F0F"/>
<path fill-rule="evenodd" clip-rule="evenodd" d="M170.638 31.2661C192.517 30.6655 210.772 47.9079 211.497 69.8562C212.221 91.8059 195.143 110.221 173.272 111.073C151.221 111.934 132.684 94.6257 131.954 72.4994C131.224 50.3707 148.579 31.8711 170.638 31.2661ZM189.515 68.9002C188.264 58.8899 179.118 51.8253 169.154 53.1729C159.32 54.5031 152.392 63.5354 153.626 73.4121C154.861 83.2933 163.799 90.3285 173.655 89.179C183.642 88.0164 190.766 78.9062 189.515 68.9002Z" fill="#0F0F0F"/>
<path d="M334.698 0.153802C337.607 -0.175089 343.061 0.0971899 346 0.288351L345.979 20.3324C335.243 19.9544 331.728 21.8233 330.535 32.9188L345.241 32.9352L345.245 52.5226L330.625 52.5345C330.243 71.182 330.586 91.0311 330.582 109.773L308.662 109.734V52.5345L298.051 52.542C297.913 46.1117 297.969 39.4433 297.935 32.9928L308.65 32.9083C309.148 14.936 315.838 2.76082 334.698 0.153802Z" fill="#0F0F0F"/>
<path d="M130.569 31.3819C130.498 38.4039 130.484 45.4269 130.526 52.4493C114.322 52.4632 108.375 60.2712 108.243 76.4222C108.153 87.4832 108.338 98.6862 108.21 109.747H96.0304L86.3889 109.726L86.3605 85.899C86.3554 71.4668 85.3647 58.9322 94.6825 46.6166C101.558 37.5289 110.767 33.1725 121.786 31.5867C124.2 31.3168 128.04 31.4013 130.569 31.3819Z" fill="#0F0F0F"/>
</g>
</svg>
