<svg preserveAspectRatio="none" width="100%" height="100%" overflow="visible" style="display: block;" viewBox="0 0 17 17" fill="none" xmlns="http://www.w3.org/2000/svg">
<g id="solar:copy-bold">
<path id="Vector" d="M10.795 1.41667H8.03675C6.78725 1.41667 5.797 1.41667 5.02279 1.5215C4.22521 1.62917 3.57992 1.85583 3.07133 2.36654C2.56204 2.87725 2.33608 3.52537 2.22913 4.32579C2.125 5.10354 2.125 6.09733 2.125 7.35179V11.487C2.125 12.5552 2.77667 13.4704 3.70246 13.8543C3.655 13.2097 3.655 12.3066 3.655 11.5543V8.00558C3.655 7.09821 3.655 6.3155 3.73858 5.68933C3.82854 5.01783 4.03113 4.37467 4.55104 3.85262C5.07096 3.33058 5.712 3.12729 6.38067 3.03663C7.004 2.95304 7.78317 2.95304 8.68771 2.95304H10.8623C11.7661 2.95304 12.5439 2.95304 13.1679 3.03663C12.981 2.55942 12.6546 2.14961 12.2313 1.86064C11.808 1.57167 11.3075 1.41695 10.795 1.41667Z" fill="var(--fill-0, white)"/>
<path id="Vector_2" d="M4.675 8.07288C4.675 6.14196 4.675 5.1765 5.27283 4.57654C5.86996 3.97658 6.83117 3.97658 8.755 3.97658H10.795C12.7181 3.97658 13.68 3.97658 14.2779 4.57654C14.8757 5.1765 14.875 6.14196 14.875 8.07288V11.487C14.875 13.418 14.875 14.3834 14.2779 14.9834C13.68 15.5833 12.7181 15.5833 10.795 15.5833H8.755C6.83187 15.5833 5.86996 15.5833 5.27283 14.9834C4.675 14.3834 4.675 13.418 4.675 11.487V8.07288Z" fill="var(--fill-0, white)"/>
</g>
</svg>
