<svg preserveAspectRatio="none" width="100%" height="100%" overflow="visible" style="display: block;" viewBox="0 0 81.4005 108.751" fill="none" xmlns="http://www.w3.org/2000/svg">
<g id="Vector" filter="url(#filter0_d_0_60)">
<mask id="path-1-inside-1_0_60" fill="white">
<path d="M0.937431 105.783C0.857515 104.256 0.857515 102.036 0.928552 101.353L0.981829 100.82L1.68332 100.571C2.06514 100.438 2.40256 100.287 2.4292 100.243C2.45584 100.198 2.42032 100.189 2.34929 100.216C2.26937 100.243 2.20721 100.26 2.20721 100.243C2.20721 100.225 2.518 99.8785 2.9087 99.4878C3.80554 98.5554 4.1696 97.8539 4.23176 96.9393C4.2584 96.5042 4.22288 96.1757 4.13408 95.9093C4.05417 95.6873 4.00977 95.4831 4.03641 95.4387C4.10745 95.3232 3.7789 94.8349 3.3438 94.4175C2.92646 94.009 1.77211 93.3697 1.29261 93.2809L0.990709 93.2188L0.928552 92.2864C0.857515 91.0965 0.857515 89.729 0.928552 88.9565L0.990709 88.3705L1.31037 88.3083C1.89643 88.2017 2.29601 88.0774 2.26937 88.0064C2.26049 87.9709 2.58904 87.6601 3.00638 87.3227C4.31168 86.2482 4.78229 85.4313 4.78229 84.2148C4.78229 83.8329 4.72902 83.4156 4.6491 83.2202C4.53367 82.9272 4.53367 82.9095 4.6491 83.0604C4.87997 83.3623 4.79117 83.0782 4.53367 82.6608C3.93873 81.7373 2.83766 81.0003 1.63892 80.7428L0.990709 80.6007L0.928552 79.6151C0.857515 78.3542 0.857515 77.0755 0.928552 76.3829L0.990709 75.8412L1.44357 75.7436C1.6922 75.6903 2.02074 75.5837 2.16281 75.5216C2.37593 75.415 2.3848 75.3973 2.20721 75.4505C2.06514 75.4861 2.22497 75.3085 2.66895 74.9533C3.53027 74.2607 3.96537 73.7723 4.29392 73.1063C4.53367 72.6357 4.56031 72.5114 4.56031 71.6856C4.56031 71.1794 4.59582 70.8331 4.63134 70.8864C4.68462 70.9574 4.6935 70.9308 4.65798 70.8331C4.63134 70.7443 4.6047 70.6466 4.6047 70.6289C4.6047 70.6022 4.56918 70.6111 4.51591 70.6378C4.47151 70.6644 4.45375 70.6378 4.48039 70.5578C4.55143 70.3802 4.1696 69.8208 3.65459 69.3324C3.10405 68.8263 2.26937 68.3912 1.55012 68.2491L1.00847 68.1337L0.937431 67.1214C0.893033 66.562 0.893033 65.6651 0.919672 65.1235L0.981829 64.129L1.47909 64.0757C2.23385 63.9869 2.50912 63.9247 2.40256 63.8537C2.34929 63.8182 2.62455 63.5962 3.02414 63.3564C3.42372 63.1167 3.95649 62.726 4.22288 62.4862C5.14636 61.6427 5.59922 60.2219 5.27955 59.183C5.20852 58.9432 5.15524 58.7301 5.173 58.7124C5.19076 58.6946 5.25291 58.8278 5.31507 59.0054C5.37723 59.183 5.43938 59.3073 5.45714 59.2895C5.52818 59.2185 5.20852 58.517 5.1286 58.5703C5.0842 58.5969 5.07532 58.5525 5.10196 58.4815C5.18188 58.2684 4.04529 57.1851 3.4326 56.892C2.78439 56.5812 2.02074 56.3859 1.44357 56.3859H0.990709L0.937431 55.2582C0.857515 53.8374 0.857515 52.692 0.928552 51.9372L0.990709 51.3511L1.48797 51.2446C1.76323 51.1913 2.10954 51.0847 2.25161 51.0137C2.46472 50.9071 2.4736 50.8894 2.29601 50.9338C2.15394 50.9782 2.32265 50.7917 2.78439 50.401C3.62795 49.6995 4.1696 49.0246 4.42711 48.332C4.58694 47.9147 4.61358 47.6838 4.58694 47.1066C4.56031 46.7159 4.51591 46.3163 4.48927 46.2187C4.45375 46.121 4.48039 46.1654 4.55143 46.3075C4.71126 46.6183 4.7379 46.4673 4.59582 46.1388C4.53367 46.0144 4.45375 45.9345 4.40047 45.97C4.34719 45.9967 4.33832 45.9789 4.37383 45.9256C4.45375 45.7836 3.98313 45.1087 3.56579 44.7535C3.08629 44.3628 2.10066 43.8833 1.49685 43.759L0.990709 43.6613L0.928552 42.6757C0.857515 41.4059 0.857515 39.5145 0.928552 38.8219L0.990709 38.2802L1.62116 38.0849C1.96746 37.9783 2.20721 37.8718 2.14506 37.854C2.0829 37.8363 2.26049 37.6232 2.54464 37.3923C3.28164 36.7796 3.84994 36.1136 4.13408 35.5364C4.33832 35.1102 4.37383 34.9149 4.38271 34.2755C4.38271 33.8582 4.35607 33.4053 4.32056 33.2544L4.2584 32.988L4.38271 33.2544C4.45375 33.4053 4.50703 33.4763 4.51591 33.4142C4.51591 33.2277 4.32056 32.8548 4.24064 32.908C4.19624 32.9347 4.18736 32.8992 4.214 32.8281C4.27616 32.6683 3.62795 31.8602 3.15733 31.5139C2.66895 31.1499 2.00298 30.8391 1.44357 30.7148L0.990709 30.6082L0.937431 29.6226C0.857515 28.3705 0.857515 26.7633 0.928552 25.9997L0.990709 25.4047L1.34589 25.3426C1.75435 25.2804 2.40256 25.0584 2.22497 25.0495C2.15394 25.0407 2.42032 24.8098 2.80215 24.5256C3.63683 23.9041 4.18736 23.3002 4.49815 22.6432C4.70238 22.2169 4.7379 22.0393 4.7379 21.3112C4.7379 20.8495 4.70238 20.37 4.66686 20.2456C4.6047 20.068 4.61358 20.0503 4.6935 20.1568C4.78229 20.2723 4.79117 20.2634 4.74678 20.1302C4.72014 20.0414 4.6935 19.9437 4.6935 19.926C4.6935 19.8993 4.65798 19.9082 4.6047 19.9349C4.56031 19.9615 4.54255 19.9349 4.56918 19.8638C4.59582 19.7839 4.40047 19.4998 4.07193 19.1446C3.42372 18.4608 2.48248 17.9369 1.56788 17.7682L0.990709 17.6528L0.937431 16.6671C0.857515 15.4151 0.857515 14.243 0.928552 13.4882L0.990709 12.8933L1.31037 12.84C1.84315 12.7512 2.29601 12.6091 2.26937 12.5292C2.26049 12.4848 2.57128 12.2007 2.9531 11.8899C4.29392 10.8154 4.78229 9.97187 4.78229 8.73759C4.78229 8.35577 4.72902 7.93842 4.6491 7.74307C4.53367 7.45004 4.53367 7.43228 4.6491 7.58324C4.87997 7.88515 4.79117 7.601 4.53367 7.18365C3.92985 6.25129 2.72223 5.461 1.559 5.239L0.990709 5.13245L0.937431 4.1468C0.857515 2.88589 0.857515 1.66938 0.937431 0.737012L0.990709 0H3.05965H5.13748V0.426224C5.13748 0.950124 5.29731 1.94465 5.41275 2.12224C5.4749 2.2288 5.48378 2.19328 5.43938 1.99793C5.39499 1.79369 5.43938 1.83809 5.62586 2.19328C6.22079 3.30324 6.99331 4.03137 7.96119 4.3688C8.68044 4.62631 9.69271 4.55527 10.4297 4.20896C11.0868 3.89817 11.8327 3.16116 12.2678 2.39751C12.4809 2.01568 12.5963 1.88249 12.6052 1.99793C12.6319 2.39751 12.845 1.23427 12.8538 0.648216L12.8627 0H15.4733H18.0839V0.692614C18.0928 1.26979 18.2438 2.1844 18.2704 1.77593C18.2793 1.7049 18.4125 1.90913 18.5634 2.21992C18.9719 3.02797 19.7622 3.83602 20.4814 4.1912C21.0231 4.45759 21.1385 4.48423 21.9199 4.48423C22.7013 4.48423 22.8167 4.45759 23.3584 4.1912C24.0776 3.83602 24.8147 3.07237 25.2498 2.23768C25.4185 1.90913 25.5605 1.7049 25.5694 1.77593C25.6049 2.0956 25.7204 1.31419 25.7293 0.692614L25.7381 0H27.7804H29.8227L29.8316 0.603817C29.8405 1.12772 30.0536 2.29095 30.0803 1.95353C30.0803 1.88249 30.2401 2.08672 30.4266 2.39751C30.8705 3.17004 31.6075 3.90705 32.2646 4.22672C32.7441 4.45759 32.8862 4.48423 33.6854 4.48423C34.4845 4.48423 34.6266 4.45759 35.1061 4.22672C35.7632 3.89817 36.4203 3.24996 36.8998 2.45967C37.0951 2.12224 37.2816 1.90025 37.2994 1.97129C37.3615 2.14 37.548 0.994523 37.548 0.461743V0H40.1586H42.7692L42.7248 0.346307C42.6715 0.737012 42.8669 2.02456 42.9557 1.87361C42.9912 1.82033 43.0977 1.94465 43.2132 2.1844C43.4796 2.72606 44.039 3.44531 44.4297 3.7561C44.6073 3.89817 44.9713 4.11129 45.2555 4.24448C45.6906 4.44871 45.877 4.48423 46.6052 4.48423C47.3422 4.48423 47.5198 4.44871 47.9638 4.24448C48.6475 3.92481 49.4999 3.06349 49.8906 2.29095C50.0593 1.97129 50.2192 1.71378 50.2547 1.74041C50.3346 1.78481 50.4234 1.19876 50.4234 0.559419V0H52.6433H54.8632L54.8721 0.515021C54.881 0.976763 55.0941 2.07784 55.1207 1.77593C55.1207 1.7049 55.2805 1.90025 55.467 2.21104C55.9465 3.03685 56.6036 3.67618 57.3228 4.02249C57.8645 4.28 58.0066 4.30664 58.7258 4.30664C59.4451 4.30664 59.5871 4.28 60.1288 4.02249C60.848 3.67618 61.5051 3.03685 61.9935 2.21104C62.1711 1.90025 62.3309 1.7049 62.3309 1.77593C62.3576 2.07784 62.5707 0.976763 62.5796 0.515021L62.5884 0H65.1546H67.712L67.783 0.692614C67.8185 1.06556 67.8984 1.53618 67.9695 1.73154C68.0583 1.99793 68.076 2.01568 68.0494 1.82033C68.0139 1.6161 68.0672 1.66938 68.2891 2.08672C68.7154 2.85925 69.5145 3.67618 70.1716 3.99585C71.4947 4.65295 73.0664 4.34216 74.1408 3.22332C74.5049 2.85037 75.1087 1.93577 75.1175 1.75817C75.1175 1.69602 75.1619 1.72266 75.2063 1.82033C75.2774 1.97129 75.2863 1.96241 75.2596 1.75817C75.2419 1.62498 75.2507 1.53618 75.2863 1.55394C75.3839 1.6161 75.4639 1.12772 75.4639 0.5239V0H77.9413H80.4187L80.4808 1.0478C80.543 1.97129 80.4808 5.05253 80.4009 5.13245C80.3831 5.15021 80.1256 5.22124 79.8237 5.29228C78.332 5.63859 76.9467 6.8551 76.6715 8.0805C76.6271 8.27585 76.636 8.27585 76.7425 8.05386C76.8491 7.82299 76.8491 7.86739 76.8136 8.49784C76.7425 9.81203 77.2309 10.7533 78.5451 11.8455C78.9447 12.174 79.1489 12.4049 79.0867 12.4404C78.9979 12.5026 79.4597 12.6624 80.1789 12.8311C80.392 12.8844 80.4187 12.9377 80.4719 13.4261C80.543 14.1187 80.543 15.8413 80.4719 17.0934L80.4098 18.079L79.877 18.1767C79.1755 18.3099 78.3408 18.7361 77.7814 19.2334C77.2753 19.6862 76.929 20.1924 77.0267 20.3433C77.0711 20.4144 77.0533 20.4232 76.9734 20.3788C76.8846 20.3256 76.8668 20.3433 76.9112 20.4588C76.9467 20.5387 76.9379 20.592 76.8935 20.5653C76.8136 20.512 76.6981 20.7163 76.7159 20.8939C76.7159 20.956 76.7514 20.9205 76.7869 20.8317C76.8224 20.7429 76.8313 21.0182 76.8136 21.4533C76.7514 22.7675 77.1599 23.5311 78.5717 24.7654C78.9358 25.0851 79.2288 25.3781 79.2199 25.4136C79.211 25.4402 79.4774 25.5379 79.8149 25.6267L80.4275 25.7866L80.4897 26.5413C80.543 27.2162 80.4719 30.2797 80.392 30.3507C80.3831 30.3685 80.1256 30.4395 79.8237 30.5105C78.7404 30.7592 77.737 31.434 77.1332 32.3042C76.9911 32.5173 76.8935 32.7482 76.9201 32.8193C76.9467 32.8903 76.9379 32.9347 76.8935 32.908C76.8491 32.8814 76.7692 32.9791 76.7159 33.1389C76.5916 33.4941 76.6004 33.5918 76.7336 33.2899C76.8224 33.0945 76.8402 33.1922 76.8402 33.9559C76.8402 34.7639 76.8668 34.906 77.0888 35.3588C77.3818 35.9538 78.0034 36.6641 78.7049 37.2058C79.0423 37.4633 79.1666 37.6143 79.0956 37.6587C78.9979 37.7208 79.4242 37.8718 80.1789 38.0494C80.392 38.1027 80.4187 38.1559 80.4719 38.6443C80.543 39.3369 80.543 41.0596 80.4719 42.3116L80.4098 43.2973L79.877 43.3949C79.1755 43.5281 78.3408 43.9544 77.7814 44.4516C77.2753 44.9045 76.929 45.4106 77.0267 45.5616C77.0711 45.6326 77.0533 45.6415 76.9734 45.5971C76.8846 45.5438 76.8668 45.5616 76.9112 45.677C76.9467 45.7569 76.9379 45.8102 76.8935 45.7836C76.8136 45.7303 76.6981 45.9345 76.7159 46.1121C76.7159 46.1743 76.7514 46.1388 76.7869 46.05C76.8224 45.9612 76.8313 46.2364 76.8136 46.6715C76.7514 47.9857 77.1599 48.7494 78.5451 49.9659C78.9003 50.2767 79.1933 50.552 79.1844 50.5875C79.1755 50.6674 79.6461 50.8539 80.0635 50.9249L80.4187 50.9782L80.4808 51.8217C80.5163 52.2835 80.5163 53.278 80.4808 54.0328L80.4187 55.4091L80.1789 55.4624C79.4508 55.6311 79.1844 55.7199 78.6427 56.0041C77.9679 56.3593 77.0089 57.2827 77.0977 57.5047C77.1243 57.5846 77.1155 57.6113 77.0622 57.5846C76.9734 57.5314 76.778 57.9043 76.6715 58.3394C76.6271 58.5348 76.636 58.5348 76.7425 58.3128C76.8491 58.0819 76.8491 58.1263 76.8136 58.7656C76.7425 60.0621 77.222 60.9944 78.5184 62.0778C78.8914 62.3885 79.1489 62.6638 79.0956 62.6993C79.0157 62.7437 79.6017 62.9568 80.1789 63.0812C80.392 63.1256 80.4187 63.1788 80.4719 63.6761C80.543 64.3776 80.543 65.9227 80.4719 67.2724L80.4098 68.3379L79.877 68.4356C79.0601 68.5954 78.252 69.0394 77.6038 69.6788C77.2309 70.0517 77.0622 70.2826 77.0977 70.3802C77.1243 70.4513 77.1155 70.4957 77.0711 70.469C76.9734 70.4069 76.8668 70.6644 76.9467 70.7887C76.9734 70.842 76.9556 70.8598 76.9112 70.8331C76.8579 70.7976 76.7692 70.8953 76.7159 71.0551C76.5916 71.4103 76.6004 71.508 76.7336 71.2061C76.8224 71.0018 76.8402 71.1084 76.8402 71.872C76.8402 72.689 76.8668 72.8133 77.1066 73.3017C77.3818 73.8611 78.3053 74.8645 79.0157 75.3795C79.3176 75.6104 79.362 75.6637 79.1933 75.6193C79.0068 75.5749 79.0157 75.5926 79.2377 75.6992C79.3886 75.7613 79.7083 75.8679 79.9569 75.9212L80.4098 76.0188L80.4719 76.5605C80.543 77.2531 80.543 78.7449 80.4719 79.9437L80.4098 80.876L79.7793 81.0802C79.433 81.1957 78.9091 81.4443 78.6161 81.6485C78.0389 82.0481 77.293 82.8917 77.3641 83.0693C77.3818 83.1315 77.3463 83.3534 77.2664 83.5666C77.1776 83.8329 77.1421 84.1615 77.1687 84.5877C77.2309 85.5556 77.5861 86.2305 78.554 87.2072C79.0157 87.6778 79.2554 87.9798 79.1489 87.9531C79.0512 87.9265 79.1755 88.0064 79.4153 88.1307C79.6639 88.255 79.9836 88.3705 80.1345 88.406C80.4009 88.4504 80.4187 88.477 80.4719 88.992C80.543 89.6935 80.543 91.6204 80.4631 92.8192L80.4098 93.7693L80.0546 93.867C79.069 94.1334 78.0389 94.8526 77.5062 95.6518C77.1687 96.1668 77.0622 96.4066 77.2309 96.3089C77.2753 96.2822 77.2664 96.4243 77.222 96.6374C77.0711 97.2856 77.1865 98.0671 77.5417 98.7774C77.7814 99.2747 78.0389 99.5944 78.6516 100.189C79.0867 100.607 79.3709 100.935 79.291 100.909C79.211 100.891 79.3531 100.971 79.5929 101.095C79.8415 101.21 80.1168 101.317 80.2233 101.317C80.392 101.317 80.4187 101.388 80.4719 101.859C80.543 102.56 80.543 104.247 80.4631 105.783L80.4098 107H78.1366H75.8634L75.748 106.538C75.5793 105.792 75.0732 104.869 74.5581 104.354C73.4215 103.208 71.8499 102.924 70.438 103.626C69.4435 104.114 68.5111 105.348 68.2714 106.512L68.1737 107H65.572H62.9703L62.8193 106.449C61.9402 103.288 58.6725 102.196 56.5592 104.345C56.0442 104.869 55.4404 105.997 55.3427 106.6L55.2894 107H53.0429H50.8052L50.601 106.37C50.2192 105.197 49.3845 104.194 48.3989 103.732C47.9549 103.519 47.7862 103.493 46.9604 103.493C46.1346 103.493 45.9658 103.519 45.5219 103.732C44.5362 104.194 43.7015 105.197 43.3197 106.37L43.1155 107L40.5049 106.982L37.8943 106.956L37.6989 106.378C37.2905 105.18 36.5091 104.221 35.5501 103.75C35.0617 103.519 34.9374 103.493 34.085 103.493C33.2236 103.493 33.1082 103.51 32.5754 103.768C31.572 104.238 30.6397 105.419 30.3555 106.583L30.249 107H28.18H26.1111L26.0134 106.592C25.7204 105.437 24.8058 104.274 23.7935 103.777C23.2518 103.51 23.1453 103.493 22.2751 103.493C21.4315 103.493 21.2895 103.519 20.8366 103.741C19.8332 104.238 19.0696 105.153 18.6611 106.37L18.4657 106.956H15.8285H13.1913L13.0847 106.556C12.7917 105.402 11.8327 104.194 10.8471 103.732C10.3853 103.519 10.2255 103.493 9.39968 103.493C8.57388 103.493 8.40517 103.519 7.96119 103.732C6.97555 104.194 6.09647 105.251 5.75017 106.396L5.5637 107H3.28164H0.990709L0.937431 105.783ZM77.1243 96.5042C77.0977 96.4332 77.0711 96.4598 77.0711 96.5575C77.0622 96.6552 77.0888 96.7085 77.1155 96.6729C77.1421 96.6463 77.151 96.5664 77.1243 96.5042ZM4.40047 96.2378C4.37383 96.1668 4.34719 96.1934 4.34719 96.2911C4.33832 96.3888 4.36495 96.4421 4.39159 96.4066C4.41823 96.3799 4.42711 96.3 4.40047 96.2378ZM4.1696 95.5719C4.06305 95.3943 4.04529 95.4476 4.1252 95.6784C4.16072 95.7583 4.20512 95.8027 4.22288 95.7761C4.24952 95.7583 4.22288 95.6607 4.1696 95.5719ZM5.02204 84.0727C4.99541 84.0105 4.97765 84.0549 4.97765 84.1793C4.97765 84.3036 4.99541 84.348 5.02204 84.2947C5.0398 84.2325 5.0398 84.126 5.02204 84.0727ZM77.0355 83.8951C77.0089 83.8241 76.9823 83.8507 76.9823 83.9484C76.9734 84.0461 77 84.0993 77.0267 84.0638C77.0533 84.0372 77.0622 83.9573 77.0355 83.8951ZM77.3286 83.1581C77.3286 83.1137 77.2842 83.1315 77.2398 83.2025C77.1954 83.2735 77.151 83.3801 77.151 83.4245C77.151 83.4778 77.1954 83.4511 77.2398 83.3801C77.2842 83.309 77.3286 83.2114 77.3286 83.1581ZM5.55482 59.476C5.52818 59.4139 5.51042 59.4583 5.51042 59.5826C5.51042 59.7069 5.52818 59.7513 5.55482 59.698C5.57258 59.6359 5.57258 59.5293 5.55482 59.476ZM5.02204 21.2046C4.99541 21.1336 4.96877 21.1602 4.96877 21.2579C4.95989 21.3556 4.98653 21.4089 5.01316 21.3734C5.0398 21.3467 5.04868 21.2668 5.02204 21.2046ZM5.02204 8.59552C4.99541 8.53336 4.97765 8.57776 4.97765 8.70207C4.97765 8.82639 4.99541 8.87079 5.02204 8.81751C5.0398 8.75535 5.0398 8.6488 5.02204 8.59552Z"/>
</mask>
<path d="M0.937431 105.783C0.857515 104.256 0.857515 102.036 0.928552 101.353L0.981829 100.82L1.68332 100.571C2.06514 100.438 2.40256 100.287 2.4292 100.243C2.45584 100.198 2.42032 100.189 2.34929 100.216C2.26937 100.243 2.20721 100.26 2.20721 100.243C2.20721 100.225 2.518 99.8785 2.9087 99.4878C3.80554 98.5554 4.1696 97.8539 4.23176 96.9393C4.2584 96.5042 4.22288 96.1757 4.13408 95.9093C4.05417 95.6873 4.00977 95.4831 4.03641 95.4387C4.10745 95.3232 3.7789 94.8349 3.3438 94.4175C2.92646 94.009 1.77211 93.3697 1.29261 93.2809L0.990709 93.2188L0.928552 92.2864C0.857515 91.0965 0.857515 89.729 0.928552 88.9565L0.990709 88.3705L1.31037 88.3083C1.89643 88.2017 2.29601 88.0774 2.26937 88.0064C2.26049 87.9709 2.58904 87.6601 3.00638 87.3227C4.31168 86.2482 4.78229 85.4313 4.78229 84.2148C4.78229 83.8329 4.72902 83.4156 4.6491 83.2202C4.53367 82.9272 4.53367 82.9095 4.6491 83.0604C4.87997 83.3623 4.79117 83.0782 4.53367 82.6608C3.93873 81.7373 2.83766 81.0003 1.63892 80.7428L0.990709 80.6007L0.928552 79.6151C0.857515 78.3542 0.857515 77.0755 0.928552 76.3829L0.990709 75.8412L1.44357 75.7436C1.6922 75.6903 2.02074 75.5837 2.16281 75.5216C2.37593 75.415 2.3848 75.3973 2.20721 75.4505C2.06514 75.4861 2.22497 75.3085 2.66895 74.9533C3.53027 74.2607 3.96537 73.7723 4.29392 73.1063C4.53367 72.6357 4.56031 72.5114 4.56031 71.6856C4.56031 71.1794 4.59582 70.8331 4.63134 70.8864C4.68462 70.9574 4.6935 70.9308 4.65798 70.8331C4.63134 70.7443 4.6047 70.6466 4.6047 70.6289C4.6047 70.6022 4.56918 70.6111 4.51591 70.6378C4.47151 70.6644 4.45375 70.6378 4.48039 70.5578C4.55143 70.3802 4.1696 69.8208 3.65459 69.3324C3.10405 68.8263 2.26937 68.3912 1.55012 68.2491L1.00847 68.1337L0.937431 67.1214C0.893033 66.562 0.893033 65.6651 0.919672 65.1235L0.981829 64.129L1.47909 64.0757C2.23385 63.9869 2.50912 63.9247 2.40256 63.8537C2.34929 63.8182 2.62455 63.5962 3.02414 63.3564C3.42372 63.1167 3.95649 62.726 4.22288 62.4862C5.14636 61.6427 5.59922 60.2219 5.27955 59.183C5.20852 58.9432 5.15524 58.7301 5.173 58.7124C5.19076 58.6946 5.25291 58.8278 5.31507 59.0054C5.37723 59.183 5.43938 59.3073 5.45714 59.2895C5.52818 59.2185 5.20852 58.517 5.1286 58.5703C5.0842 58.5969 5.07532 58.5525 5.10196 58.4815C5.18188 58.2684 4.04529 57.1851 3.4326 56.892C2.78439 56.5812 2.02074 56.3859 1.44357 56.3859H0.990709L0.937431 55.2582C0.857515 53.8374 0.857515 52.692 0.928552 51.9372L0.990709 51.3511L1.48797 51.2446C1.76323 51.1913 2.10954 51.0847 2.25161 51.0137C2.46472 50.9071 2.4736 50.8894 2.29601 50.9338C2.15394 50.9782 2.32265 50.7917 2.78439 50.401C3.62795 49.6995 4.1696 49.0246 4.42711 48.332C4.58694 47.9147 4.61358 47.6838 4.58694 47.1066C4.56031 46.7159 4.51591 46.3163 4.48927 46.2187C4.45375 46.121 4.48039 46.1654 4.55143 46.3075C4.71126 46.6183 4.7379 46.4673 4.59582 46.1388C4.53367 46.0144 4.45375 45.9345 4.40047 45.97C4.34719 45.9967 4.33832 45.9789 4.37383 45.9256C4.45375 45.7836 3.98313 45.1087 3.56579 44.7535C3.08629 44.3628 2.10066 43.8833 1.49685 43.759L0.990709 43.6613L0.928552 42.6757C0.857515 41.4059 0.857515 39.5145 0.928552 38.8219L0.990709 38.2802L1.62116 38.0849C1.96746 37.9783 2.20721 37.8718 2.14506 37.854C2.0829 37.8363 2.26049 37.6232 2.54464 37.3923C3.28164 36.7796 3.84994 36.1136 4.13408 35.5364C4.33832 35.1102 4.37383 34.9149 4.38271 34.2755C4.38271 33.8582 4.35607 33.4053 4.32056 33.2544L4.2584 32.988L4.38271 33.2544C4.45375 33.4053 4.50703 33.4763 4.51591 33.4142C4.51591 33.2277 4.32056 32.8548 4.24064 32.908C4.19624 32.9347 4.18736 32.8992 4.214 32.8281C4.27616 32.6683 3.62795 31.8602 3.15733 31.5139C2.66895 31.1499 2.00298 30.8391 1.44357 30.7148L0.990709 30.6082L0.937431 29.6226C0.857515 28.3705 0.857515 26.7633 0.928552 25.9997L0.990709 25.4047L1.34589 25.3426C1.75435 25.2804 2.40256 25.0584 2.22497 25.0495C2.15394 25.0407 2.42032 24.8098 2.80215 24.5256C3.63683 23.9041 4.18736 23.3002 4.49815 22.6432C4.70238 22.2169 4.7379 22.0393 4.7379 21.3112C4.7379 20.8495 4.70238 20.37 4.66686 20.2456C4.6047 20.068 4.61358 20.0503 4.6935 20.1568C4.78229 20.2723 4.79117 20.2634 4.74678 20.1302C4.72014 20.0414 4.6935 19.9437 4.6935 19.926C4.6935 19.8993 4.65798 19.9082 4.6047 19.9349C4.56031 19.9615 4.54255 19.9349 4.56918 19.8638C4.59582 19.7839 4.40047 19.4998 4.07193 19.1446C3.42372 18.4608 2.48248 17.9369 1.56788 17.7682L0.990709 17.6528L0.937431 16.6671C0.857515 15.4151 0.857515 14.243 0.928552 13.4882L0.990709 12.8933L1.31037 12.84C1.84315 12.7512 2.29601 12.6091 2.26937 12.5292C2.26049 12.4848 2.57128 12.2007 2.9531 11.8899C4.29392 10.8154 4.78229 9.97187 4.78229 8.73759C4.78229 8.35577 4.72902 7.93842 4.6491 7.74307C4.53367 7.45004 4.53367 7.43228 4.6491 7.58324C4.87997 7.88515 4.79117 7.601 4.53367 7.18365C3.92985 6.25129 2.72223 5.461 1.559 5.239L0.990709 5.13245L0.937431 4.1468C0.857515 2.88589 0.857515 1.66938 0.937431 0.737012L0.990709 0H3.05965H5.13748V0.426224C5.13748 0.950124 5.29731 1.94465 5.41275 2.12224C5.4749 2.2288 5.48378 2.19328 5.43938 1.99793C5.39499 1.79369 5.43938 1.83809 5.62586 2.19328C6.22079 3.30324 6.99331 4.03137 7.96119 4.3688C8.68044 4.62631 9.69271 4.55527 10.4297 4.20896C11.0868 3.89817 11.8327 3.16116 12.2678 2.39751C12.4809 2.01568 12.5963 1.88249 12.6052 1.99793C12.6319 2.39751 12.845 1.23427 12.8538 0.648216L12.8627 0H15.4733H18.0839V0.692614C18.0928 1.26979 18.2438 2.1844 18.2704 1.77593C18.2793 1.7049 18.4125 1.90913 18.5634 2.21992C18.9719 3.02797 19.7622 3.83602 20.4814 4.1912C21.0231 4.45759 21.1385 4.48423 21.9199 4.48423C22.7013 4.48423 22.8167 4.45759 23.3584 4.1912C24.0776 3.83602 24.8147 3.07237 25.2498 2.23768C25.4185 1.90913 25.5605 1.7049 25.5694 1.77593C25.6049 2.0956 25.7204 1.31419 25.7293 0.692614L25.7381 0H27.7804H29.8227L29.8316 0.603817C29.8405 1.12772 30.0536 2.29095 30.0803 1.95353C30.0803 1.88249 30.2401 2.08672 30.4266 2.39751C30.8705 3.17004 31.6075 3.90705 32.2646 4.22672C32.7441 4.45759 32.8862 4.48423 33.6854 4.48423C34.4845 4.48423 34.6266 4.45759 35.1061 4.22672C35.7632 3.89817 36.4203 3.24996 36.8998 2.45967C37.0951 2.12224 37.2816 1.90025 37.2994 1.97129C37.3615 2.14 37.548 0.994523 37.548 0.461743V0H40.1586H42.7692L42.7248 0.346307C42.6715 0.737012 42.8669 2.02456 42.9557 1.87361C42.9912 1.82033 43.0977 1.94465 43.2132 2.1844C43.4796 2.72606 44.039 3.44531 44.4297 3.7561C44.6073 3.89817 44.9713 4.11129 45.2555 4.24448C45.6906 4.44871 45.877 4.48423 46.6052 4.48423C47.3422 4.48423 47.5198 4.44871 47.9638 4.24448C48.6475 3.92481 49.4999 3.06349 49.8906 2.29095C50.0593 1.97129 50.2192 1.71378 50.2547 1.74041C50.3346 1.78481 50.4234 1.19876 50.4234 0.559419V0H52.6433H54.8632L54.8721 0.515021C54.881 0.976763 55.0941 2.07784 55.1207 1.77593C55.1207 1.7049 55.2805 1.90025 55.467 2.21104C55.9465 3.03685 56.6036 3.67618 57.3228 4.02249C57.8645 4.28 58.0066 4.30664 58.7258 4.30664C59.4451 4.30664 59.5871 4.28 60.1288 4.02249C60.848 3.67618 61.5051 3.03685 61.9935 2.21104C62.1711 1.90025 62.3309 1.7049 62.3309 1.77593C62.3576 2.07784 62.5707 0.976763 62.5796 0.515021L62.5884 0H65.1546H67.712L67.783 0.692614C67.8185 1.06556 67.8984 1.53618 67.9695 1.73154C68.0583 1.99793 68.076 2.01568 68.0494 1.82033C68.0139 1.6161 68.0672 1.66938 68.2891 2.08672C68.7154 2.85925 69.5145 3.67618 70.1716 3.99585C71.4947 4.65295 73.0664 4.34216 74.1408 3.22332C74.5049 2.85037 75.1087 1.93577 75.1175 1.75817C75.1175 1.69602 75.1619 1.72266 75.2063 1.82033C75.2774 1.97129 75.2863 1.96241 75.2596 1.75817C75.2419 1.62498 75.2507 1.53618 75.2863 1.55394C75.3839 1.6161 75.4639 1.12772 75.4639 0.5239V0H77.9413H80.4187L80.4808 1.0478C80.543 1.97129 80.4808 5.05253 80.4009 5.13245C80.3831 5.15021 80.1256 5.22124 79.8237 5.29228C78.332 5.63859 76.9467 6.8551 76.6715 8.0805C76.6271 8.27585 76.636 8.27585 76.7425 8.05386C76.8491 7.82299 76.8491 7.86739 76.8136 8.49784C76.7425 9.81203 77.2309 10.7533 78.5451 11.8455C78.9447 12.174 79.1489 12.4049 79.0867 12.4404C78.9979 12.5026 79.4597 12.6624 80.1789 12.8311C80.392 12.8844 80.4187 12.9377 80.4719 13.4261C80.543 14.1187 80.543 15.8413 80.4719 17.0934L80.4098 18.079L79.877 18.1767C79.1755 18.3099 78.3408 18.7361 77.7814 19.2334C77.2753 19.6862 76.929 20.1924 77.0267 20.3433C77.0711 20.4144 77.0533 20.4232 76.9734 20.3788C76.8846 20.3256 76.8668 20.3433 76.9112 20.4588C76.9467 20.5387 76.9379 20.592 76.8935 20.5653C76.8136 20.512 76.6981 20.7163 76.7159 20.8939C76.7159 20.956 76.7514 20.9205 76.7869 20.8317C76.8224 20.7429 76.8313 21.0182 76.8136 21.4533C76.7514 22.7675 77.1599 23.5311 78.5717 24.7654C78.9358 25.0851 79.2288 25.3781 79.2199 25.4136C79.211 25.4402 79.4774 25.5379 79.8149 25.6267L80.4275 25.7866L80.4897 26.5413C80.543 27.2162 80.4719 30.2797 80.392 30.3507C80.3831 30.3685 80.1256 30.4395 79.8237 30.5105C78.7404 30.7592 77.737 31.434 77.1332 32.3042C76.9911 32.5173 76.8935 32.7482 76.9201 32.8193C76.9467 32.8903 76.9379 32.9347 76.8935 32.908C76.8491 32.8814 76.7692 32.9791 76.7159 33.1389C76.5916 33.4941 76.6004 33.5918 76.7336 33.2899C76.8224 33.0945 76.8402 33.1922 76.8402 33.9559C76.8402 34.7639 76.8668 34.906 77.0888 35.3588C77.3818 35.9538 78.0034 36.6641 78.7049 37.2058C79.0423 37.4633 79.1666 37.6143 79.0956 37.6587C78.9979 37.7208 79.4242 37.8718 80.1789 38.0494C80.392 38.1027 80.4187 38.1559 80.4719 38.6443C80.543 39.3369 80.543 41.0596 80.4719 42.3116L80.4098 43.2973L79.877 43.3949C79.1755 43.5281 78.3408 43.9544 77.7814 44.4516C77.2753 44.9045 76.929 45.4106 77.0267 45.5616C77.0711 45.6326 77.0533 45.6415 76.9734 45.5971C76.8846 45.5438 76.8668 45.5616 76.9112 45.677C76.9467 45.7569 76.9379 45.8102 76.8935 45.7836C76.8136 45.7303 76.6981 45.9345 76.7159 46.1121C76.7159 46.1743 76.7514 46.1388 76.7869 46.05C76.8224 45.9612 76.8313 46.2364 76.8136 46.6715C76.7514 47.9857 77.1599 48.7494 78.5451 49.9659C78.9003 50.2767 79.1933 50.552 79.1844 50.5875C79.1755 50.6674 79.6461 50.8539 80.0635 50.9249L80.4187 50.9782L80.4808 51.8217C80.5163 52.2835 80.5163 53.278 80.4808 54.0328L80.4187 55.4091L80.1789 55.4624C79.4508 55.6311 79.1844 55.7199 78.6427 56.0041C77.9679 56.3593 77.0089 57.2827 77.0977 57.5047C77.1243 57.5846 77.1155 57.6113 77.0622 57.5846C76.9734 57.5314 76.778 57.9043 76.6715 58.3394C76.6271 58.5348 76.636 58.5348 76.7425 58.3128C76.8491 58.0819 76.8491 58.1263 76.8136 58.7656C76.7425 60.0621 77.222 60.9944 78.5184 62.0778C78.8914 62.3885 79.1489 62.6638 79.0956 62.6993C79.0157 62.7437 79.6017 62.9568 80.1789 63.0812C80.392 63.1256 80.4187 63.1788 80.4719 63.6761C80.543 64.3776 80.543 65.9227 80.4719 67.2724L80.4098 68.3379L79.877 68.4356C79.0601 68.5954 78.252 69.0394 77.6038 69.6788C77.2309 70.0517 77.0622 70.2826 77.0977 70.3802C77.1243 70.4513 77.1155 70.4957 77.0711 70.469C76.9734 70.4069 76.8668 70.6644 76.9467 70.7887C76.9734 70.842 76.9556 70.8598 76.9112 70.8331C76.8579 70.7976 76.7692 70.8953 76.7159 71.0551C76.5916 71.4103 76.6004 71.508 76.7336 71.2061C76.8224 71.0018 76.8402 71.1084 76.8402 71.872C76.8402 72.689 76.8668 72.8133 77.1066 73.3017C77.3818 73.8611 78.3053 74.8645 79.0157 75.3795C79.3176 75.6104 79.362 75.6637 79.1933 75.6193C79.0068 75.5749 79.0157 75.5926 79.2377 75.6992C79.3886 75.7613 79.7083 75.8679 79.9569 75.9212L80.4098 76.0188L80.4719 76.5605C80.543 77.2531 80.543 78.7449 80.4719 79.9437L80.4098 80.876L79.7793 81.0802C79.433 81.1957 78.9091 81.4443 78.6161 81.6485C78.0389 82.0481 77.293 82.8917 77.3641 83.0693C77.3818 83.1315 77.3463 83.3534 77.2664 83.5666C77.1776 83.8329 77.1421 84.1615 77.1687 84.5877C77.2309 85.5556 77.5861 86.2305 78.554 87.2072C79.0157 87.6778 79.2554 87.9798 79.1489 87.9531C79.0512 87.9265 79.1755 88.0064 79.4153 88.1307C79.6639 88.255 79.9836 88.3705 80.1345 88.406C80.4009 88.4504 80.4187 88.477 80.4719 88.992C80.543 89.6935 80.543 91.6204 80.4631 92.8192L80.4098 93.7693L80.0546 93.867C79.069 94.1334 78.0389 94.8526 77.5062 95.6518C77.1687 96.1668 77.0622 96.4066 77.2309 96.3089C77.2753 96.2822 77.2664 96.4243 77.222 96.6374C77.0711 97.2856 77.1865 98.0671 77.5417 98.7774C77.7814 99.2747 78.0389 99.5944 78.6516 100.189C79.0867 100.607 79.3709 100.935 79.291 100.909C79.211 100.891 79.3531 100.971 79.5929 101.095C79.8415 101.21 80.1168 101.317 80.2233 101.317C80.392 101.317 80.4187 101.388 80.4719 101.859C80.543 102.56 80.543 104.247 80.4631 105.783L80.4098 107H78.1366H75.8634L75.748 106.538C75.5793 105.792 75.0732 104.869 74.5581 104.354C73.4215 103.208 71.8499 102.924 70.438 103.626C69.4435 104.114 68.5111 105.348 68.2714 106.512L68.1737 107H65.572H62.9703L62.8193 106.449C61.9402 103.288 58.6725 102.196 56.5592 104.345C56.0442 104.869 55.4404 105.997 55.3427 106.6L55.2894 107H53.0429H50.8052L50.601 106.37C50.2192 105.197 49.3845 104.194 48.3989 103.732C47.9549 103.519 47.7862 103.493 46.9604 103.493C46.1346 103.493 45.9658 103.519 45.5219 103.732C44.5362 104.194 43.7015 105.197 43.3197 106.37L43.1155 107L40.5049 106.982L37.8943 106.956L37.6989 106.378C37.2905 105.18 36.5091 104.221 35.5501 103.75C35.0617 103.519 34.9374 103.493 34.085 103.493C33.2236 103.493 33.1082 103.51 32.5754 103.768C31.572 104.238 30.6397 105.419 30.3555 106.583L30.249 107H28.18H26.1111L26.0134 106.592C25.7204 105.437 24.8058 104.274 23.7935 103.777C23.2518 103.51 23.1453 103.493 22.2751 103.493C21.4315 103.493 21.2895 103.519 20.8366 103.741C19.8332 104.238 19.0696 105.153 18.6611 106.37L18.4657 106.956H15.8285H13.1913L13.0847 106.556C12.7917 105.402 11.8327 104.194 10.8471 103.732C10.3853 103.519 10.2255 103.493 9.39968 103.493C8.57388 103.493 8.40517 103.519 7.96119 103.732C6.97555 104.194 6.09647 105.251 5.75017 106.396L5.5637 107H3.28164H0.990709L0.937431 105.783ZM77.1243 96.5042C77.0977 96.4332 77.0711 96.4598 77.0711 96.5575C77.0622 96.6552 77.0888 96.7085 77.1155 96.6729C77.1421 96.6463 77.151 96.5664 77.1243 96.5042ZM4.40047 96.2378C4.37383 96.1668 4.34719 96.1934 4.34719 96.2911C4.33832 96.3888 4.36495 96.4421 4.39159 96.4066C4.41823 96.3799 4.42711 96.3 4.40047 96.2378ZM4.1696 95.5719C4.06305 95.3943 4.04529 95.4476 4.1252 95.6784C4.16072 95.7583 4.20512 95.8027 4.22288 95.7761C4.24952 95.7583 4.22288 95.6607 4.1696 95.5719ZM5.02204 84.0727C4.99541 84.0105 4.97765 84.0549 4.97765 84.1793C4.97765 84.3036 4.99541 84.348 5.02204 84.2947C5.0398 84.2325 5.0398 84.126 5.02204 84.0727ZM77.0355 83.8951C77.0089 83.8241 76.9823 83.8507 76.9823 83.9484C76.9734 84.0461 77 84.0993 77.0267 84.0638C77.0533 84.0372 77.0622 83.9573 77.0355 83.8951ZM77.3286 83.1581C77.3286 83.1137 77.2842 83.1315 77.2398 83.2025C77.1954 83.2735 77.151 83.3801 77.151 83.4245C77.151 83.4778 77.1954 83.4511 77.2398 83.3801C77.2842 83.309 77.3286 83.2114 77.3286 83.1581ZM5.55482 59.476C5.52818 59.4139 5.51042 59.4583 5.51042 59.5826C5.51042 59.7069 5.52818 59.7513 5.55482 59.698C5.57258 59.6359 5.57258 59.5293 5.55482 59.476ZM5.02204 21.2046C4.99541 21.1336 4.96877 21.1602 4.96877 21.2579C4.95989 21.3556 4.98653 21.4089 5.01316 21.3734C5.0398 21.3467 5.04868 21.2668 5.02204 21.2046ZM5.02204 8.59552C4.99541 8.53336 4.97765 8.57776 4.97765 8.70207C4.97765 8.82639 4.99541 8.87079 5.02204 8.81751C5.0398 8.75535 5.0398 8.6488 5.02204 8.59552Z" fill="var(--fill-0, #EDEAE0)"/>
<path d="M0.937431 105.783C0.857515 104.256 0.857515 102.036 0.928552 101.353L0.981829 100.82L1.68332 100.571C2.06514 100.438 2.40256 100.287 2.4292 100.243C2.45584 100.198 2.42032 100.189 2.34929 100.216C2.26937 100.243 2.20721 100.26 2.20721 100.243C2.20721 100.225 2.518 99.8785 2.9087 99.4878C3.80554 98.5554 4.1696 97.8539 4.23176 96.9393C4.2584 96.5042 4.22288 96.1757 4.13408 95.9093C4.05417 95.6873 4.00977 95.4831 4.03641 95.4387C4.10745 95.3232 3.7789 94.8349 3.3438 94.4175C2.92646 94.009 1.77211 93.3697 1.29261 93.2809L0.990709 93.2188L0.928552 92.2864C0.857515 91.0965 0.857515 89.729 0.928552 88.9565L0.990709 88.3705L1.31037 88.3083C1.89643 88.2017 2.29601 88.0774 2.26937 88.0064C2.26049 87.9709 2.58904 87.6601 3.00638 87.3227C4.31168 86.2482 4.78229 85.4313 4.78229 84.2148C4.78229 83.8329 4.72902 83.4156 4.6491 83.2202C4.53367 82.9272 4.53367 82.9095 4.6491 83.0604C4.87997 83.3623 4.79117 83.0782 4.53367 82.6608C3.93873 81.7373 2.83766 81.0003 1.63892 80.7428L0.990709 80.6007L0.928552 79.6151C0.857515 78.3542 0.857515 77.0755 0.928552 76.3829L0.990709 75.8412L1.44357 75.7436C1.6922 75.6903 2.02074 75.5837 2.16281 75.5216C2.37593 75.415 2.3848 75.3973 2.20721 75.4505C2.06514 75.4861 2.22497 75.3085 2.66895 74.9533C3.53027 74.2607 3.96537 73.7723 4.29392 73.1063C4.53367 72.6357 4.56031 72.5114 4.56031 71.6856C4.56031 71.1794 4.59582 70.8331 4.63134 70.8864C4.68462 70.9574 4.6935 70.9308 4.65798 70.8331C4.63134 70.7443 4.6047 70.6466 4.6047 70.6289C4.6047 70.6022 4.56918 70.6111 4.51591 70.6378C4.47151 70.6644 4.45375 70.6378 4.48039 70.5578C4.55143 70.3802 4.1696 69.8208 3.65459 69.3324C3.10405 68.8263 2.26937 68.3912 1.55012 68.2491L1.00847 68.1337L0.937431 67.1214C0.893033 66.562 0.893033 65.6651 0.919672 65.1235L0.981829 64.129L1.47909 64.0757C2.23385 63.9869 2.50912 63.9247 2.40256 63.8537C2.34929 63.8182 2.62455 63.5962 3.02414 63.3564C3.42372 63.1167 3.95649 62.726 4.22288 62.4862C5.14636 61.6427 5.59922 60.2219 5.27955 59.183C5.20852 58.9432 5.15524 58.7301 5.173 58.7124C5.19076 58.6946 5.25291 58.8278 5.31507 59.0054C5.37723 59.183 5.43938 59.3073 5.45714 59.2895C5.52818 59.2185 5.20852 58.517 5.1286 58.5703C5.0842 58.5969 5.07532 58.5525 5.10196 58.4815C5.18188 58.2684 4.04529 57.1851 3.4326 56.892C2.78439 56.5812 2.02074 56.3859 1.44357 56.3859H0.990709L0.937431 55.2582C0.857515 53.8374 0.857515 52.692 0.928552 51.9372L0.990709 51.3511L1.48797 51.2446C1.76323 51.1913 2.10954 51.0847 2.25161 51.0137C2.46472 50.9071 2.4736 50.8894 2.29601 50.9338C2.15394 50.9782 2.32265 50.7917 2.78439 50.401C3.62795 49.6995 4.1696 49.0246 4.42711 48.332C4.58694 47.9147 4.61358 47.6838 4.58694 47.1066C4.56031 46.7159 4.51591 46.3163 4.48927 46.2187C4.45375 46.121 4.48039 46.1654 4.55143 46.3075C4.71126 46.6183 4.7379 46.4673 4.59582 46.1388C4.53367 46.0144 4.45375 45.9345 4.40047 45.97C4.34719 45.9967 4.33832 45.9789 4.37383 45.9256C4.45375 45.7836 3.98313 45.1087 3.56579 44.7535C3.08629 44.3628 2.10066 43.8833 1.49685 43.759L0.990709 43.6613L0.928552 42.6757C0.857515 41.4059 0.857515 39.5145 0.928552 38.8219L0.990709 38.2802L1.62116 38.0849C1.96746 37.9783 2.20721 37.8718 2.14506 37.854C2.0829 37.8363 2.26049 37.6232 2.54464 37.3923C3.28164 36.7796 3.84994 36.1136 4.13408 35.5364C4.33832 35.1102 4.37383 34.9149 4.38271 34.2755C4.38271 33.8582 4.35607 33.4053 4.32056 33.2544L4.2584 32.988L4.38271 33.2544C4.45375 33.4053 4.50703 33.4763 4.51591 33.4142C4.51591 33.2277 4.32056 32.8548 4.24064 32.908C4.19624 32.9347 4.18736 32.8992 4.214 32.8281C4.27616 32.6683 3.62795 31.8602 3.15733 31.5139C2.66895 31.1499 2.00298 30.8391 1.44357 30.7148L0.990709 30.6082L0.937431 29.6226C0.857515 28.3705 0.857515 26.7633 0.928552 25.9997L0.990709 25.4047L1.34589 25.3426C1.75435 25.2804 2.40256 25.0584 2.22497 25.0495C2.15394 25.0407 2.42032 24.8098 2.80215 24.5256C3.63683 23.9041 4.18736 23.3002 4.49815 22.6432C4.70238 22.2169 4.7379 22.0393 4.7379 21.3112C4.7379 20.8495 4.70238 20.37 4.66686 20.2456C4.6047 20.068 4.61358 20.0503 4.6935 20.1568C4.78229 20.2723 4.79117 20.2634 4.74678 20.1302C4.72014 20.0414 4.6935 19.9437 4.6935 19.926C4.6935 19.8993 4.65798 19.9082 4.6047 19.9349C4.56031 19.9615 4.54255 19.9349 4.56918 19.8638C4.59582 19.7839 4.40047 19.4998 4.07193 19.1446C3.42372 18.4608 2.48248 17.9369 1.56788 17.7682L0.990709 17.6528L0.937431 16.6671C0.857515 15.4151 0.857515 14.243 0.928552 13.4882L0.990709 12.8933L1.31037 12.84C1.84315 12.7512 2.29601 12.6091 2.26937 12.5292C2.26049 12.4848 2.57128 12.2007 2.9531 11.8899C4.29392 10.8154 4.78229 9.97187 4.78229 8.73759C4.78229 8.35577 4.72902 7.93842 4.6491 7.74307C4.53367 7.45004 4.53367 7.43228 4.6491 7.58324C4.87997 7.88515 4.79117 7.601 4.53367 7.18365C3.92985 6.25129 2.72223 5.461 1.559 5.239L0.990709 5.13245L0.937431 4.1468C0.857515 2.88589 0.857515 1.66938 0.937431 0.737012L0.990709 0H3.05965H5.13748V0.426224C5.13748 0.950124 5.29731 1.94465 5.41275 2.12224C5.4749 2.2288 5.48378 2.19328 5.43938 1.99793C5.39499 1.79369 5.43938 1.83809 5.62586 2.19328C6.22079 3.30324 6.99331 4.03137 7.96119 4.3688C8.68044 4.62631 9.69271 4.55527 10.4297 4.20896C11.0868 3.89817 11.8327 3.16116 12.2678 2.39751C12.4809 2.01568 12.5963 1.88249 12.6052 1.99793C12.6319 2.39751 12.845 1.23427 12.8538 0.648216L12.8627 0H15.4733H18.0839V0.692614C18.0928 1.26979 18.2438 2.1844 18.2704 1.77593C18.2793 1.7049 18.4125 1.90913 18.5634 2.21992C18.9719 3.02797 19.7622 3.83602 20.4814 4.1912C21.0231 4.45759 21.1385 4.48423 21.9199 4.48423C22.7013 4.48423 22.8167 4.45759 23.3584 4.1912C24.0776 3.83602 24.8147 3.07237 25.2498 2.23768C25.4185 1.90913 25.5605 1.7049 25.5694 1.77593C25.6049 2.0956 25.7204 1.31419 25.7293 0.692614L25.7381 0H27.7804H29.8227L29.8316 0.603817C29.8405 1.12772 30.0536 2.29095 30.0803 1.95353C30.0803 1.88249 30.2401 2.08672 30.4266 2.39751C30.8705 3.17004 31.6075 3.90705 32.2646 4.22672C32.7441 4.45759 32.8862 4.48423 33.6854 4.48423C34.4845 4.48423 34.6266 4.45759 35.1061 4.22672C35.7632 3.89817 36.4203 3.24996 36.8998 2.45967C37.0951 2.12224 37.2816 1.90025 37.2994 1.97129C37.3615 2.14 37.548 0.994523 37.548 0.461743V0H40.1586H42.7692L42.7248 0.346307C42.6715 0.737012 42.8669 2.02456 42.9557 1.87361C42.9912 1.82033 43.0977 1.94465 43.2132 2.1844C43.4796 2.72606 44.039 3.44531 44.4297 3.7561C44.6073 3.89817 44.9713 4.11129 45.2555 4.24448C45.6906 4.44871 45.877 4.48423 46.6052 4.48423C47.3422 4.48423 47.5198 4.44871 47.9638 4.24448C48.6475 3.92481 49.4999 3.06349 49.8906 2.29095C50.0593 1.97129 50.2192 1.71378 50.2547 1.74041C50.3346 1.78481 50.4234 1.19876 50.4234 0.559419V0H52.6433H54.8632L54.8721 0.515021C54.881 0.976763 55.0941 2.07784 55.1207 1.77593C55.1207 1.7049 55.2805 1.90025 55.467 2.21104C55.9465 3.03685 56.6036 3.67618 57.3228 4.02249C57.8645 4.28 58.0066 4.30664 58.7258 4.30664C59.4451 4.30664 59.5871 4.28 60.1288 4.02249C60.848 3.67618 61.5051 3.03685 61.9935 2.21104C62.1711 1.90025 62.3309 1.7049 62.3309 1.77593C62.3576 2.07784 62.5707 0.976763 62.5796 0.515021L62.5884 0H65.1546H67.712L67.783 0.692614C67.8185 1.06556 67.8984 1.53618 67.9695 1.73154C68.0583 1.99793 68.076 2.01568 68.0494 1.82033C68.0139 1.6161 68.0672 1.66938 68.2891 2.08672C68.7154 2.85925 69.5145 3.67618 70.1716 3.99585C71.4947 4.65295 73.0664 4.34216 74.1408 3.22332C74.5049 2.85037 75.1087 1.93577 75.1175 1.75817C75.1175 1.69602 75.1619 1.72266 75.2063 1.82033C75.2774 1.97129 75.2863 1.96241 75.2596 1.75817C75.2419 1.62498 75.2507 1.53618 75.2863 1.55394C75.3839 1.6161 75.4639 1.12772 75.4639 0.5239V0H77.9413H80.4187L80.4808 1.0478C80.543 1.97129 80.4808 5.05253 80.4009 5.13245C80.3831 5.15021 80.1256 5.22124 79.8237 5.29228C78.332 5.63859 76.9467 6.8551 76.6715 8.0805C76.6271 8.27585 76.636 8.27585 76.7425 8.05386C76.8491 7.82299 76.8491 7.86739 76.8136 8.49784C76.7425 9.81203 77.2309 10.7533 78.5451 11.8455C78.9447 12.174 79.1489 12.4049 79.0867 12.4404C78.9979 12.5026 79.4597 12.6624 80.1789 12.8311C80.392 12.8844 80.4187 12.9377 80.4719 13.4261C80.543 14.1187 80.543 15.8413 80.4719 17.0934L80.4098 18.079L79.877 18.1767C79.1755 18.3099 78.3408 18.7361 77.7814 19.2334C77.2753 19.6862 76.929 20.1924 77.0267 20.3433C77.0711 20.4144 77.0533 20.4232 76.9734 20.3788C76.8846 20.3256 76.8668 20.3433 76.9112 20.4588C76.9467 20.5387 76.9379 20.592 76.8935 20.5653C76.8136 20.512 76.6981 20.7163 76.7159 20.8939C76.7159 20.956 76.7514 20.9205 76.7869 20.8317C76.8224 20.7429 76.8313 21.0182 76.8136 21.4533C76.7514 22.7675 77.1599 23.5311 78.5717 24.7654C78.9358 25.0851 79.2288 25.3781 79.2199 25.4136C79.211 25.4402 79.4774 25.5379 79.8149 25.6267L80.4275 25.7866L80.4897 26.5413C80.543 27.2162 80.4719 30.2797 80.392 30.3507C80.3831 30.3685 80.1256 30.4395 79.8237 30.5105C78.7404 30.7592 77.737 31.434 77.1332 32.3042C76.9911 32.5173 76.8935 32.7482 76.9201 32.8193C76.9467 32.8903 76.9379 32.9347 76.8935 32.908C76.8491 32.8814 76.7692 32.9791 76.7159 33.1389C76.5916 33.4941 76.6004 33.5918 76.7336 33.2899C76.8224 33.0945 76.8402 33.1922 76.8402 33.9559C76.8402 34.7639 76.8668 34.906 77.0888 35.3588C77.3818 35.9538 78.0034 36.6641 78.7049 37.2058C79.0423 37.4633 79.1666 37.6143 79.0956 37.6587C78.9979 37.7208 79.4242 37.8718 80.1789 38.0494C80.392 38.1027 80.4187 38.1559 80.4719 38.6443C80.543 39.3369 80.543 41.0596 80.4719 42.3116L80.4098 43.2973L79.877 43.3949C79.1755 43.5281 78.3408 43.9544 77.7814 44.4516C77.2753 44.9045 76.929 45.4106 77.0267 45.5616C77.0711 45.6326 77.0533 45.6415 76.9734 45.5971C76.8846 45.5438 76.8668 45.5616 76.9112 45.677C76.9467 45.7569 76.9379 45.8102 76.8935 45.7836C76.8136 45.7303 76.6981 45.9345 76.7159 46.1121C76.7159 46.1743 76.7514 46.1388 76.7869 46.05C76.8224 45.9612 76.8313 46.2364 76.8136 46.6715C76.7514 47.9857 77.1599 48.7494 78.5451 49.9659C78.9003 50.2767 79.1933 50.552 79.1844 50.5875C79.1755 50.6674 79.6461 50.8539 80.0635 50.9249L80.4187 50.9782L80.4808 51.8217C80.5163 52.2835 80.5163 53.278 80.4808 54.0328L80.4187 55.4091L80.1789 55.4624C79.4508 55.6311 79.1844 55.7199 78.6427 56.0041C77.9679 56.3593 77.0089 57.2827 77.0977 57.5047C77.1243 57.5846 77.1155 57.6113 77.0622 57.5846C76.9734 57.5314 76.778 57.9043 76.6715 58.3394C76.6271 58.5348 76.636 58.5348 76.7425 58.3128C76.8491 58.0819 76.8491 58.1263 76.8136 58.7656C76.7425 60.0621 77.222 60.9944 78.5184 62.0778C78.8914 62.3885 79.1489 62.6638 79.0956 62.6993C79.0157 62.7437 79.6017 62.9568 80.1789 63.0812C80.392 63.1256 80.4187 63.1788 80.4719 63.6761C80.543 64.3776 80.543 65.9227 80.4719 67.2724L80.4098 68.3379L79.877 68.4356C79.0601 68.5954 78.252 69.0394 77.6038 69.6788C77.2309 70.0517 77.0622 70.2826 77.0977 70.3802C77.1243 70.4513 77.1155 70.4957 77.0711 70.469C76.9734 70.4069 76.8668 70.6644 76.9467 70.7887C76.9734 70.842 76.9556 70.8598 76.9112 70.8331C76.8579 70.7976 76.7692 70.8953 76.7159 71.0551C76.5916 71.4103 76.6004 71.508 76.7336 71.2061C76.8224 71.0018 76.8402 71.1084 76.8402 71.872C76.8402 72.689 76.8668 72.8133 77.1066 73.3017C77.3818 73.8611 78.3053 74.8645 79.0157 75.3795C79.3176 75.6104 79.362 75.6637 79.1933 75.6193C79.0068 75.5749 79.0157 75.5926 79.2377 75.6992C79.3886 75.7613 79.7083 75.8679 79.9569 75.9212L80.4098 76.0188L80.4719 76.5605C80.543 77.2531 80.543 78.7449 80.4719 79.9437L80.4098 80.876L79.7793 81.0802C79.433 81.1957 78.9091 81.4443 78.6161 81.6485C78.0389 82.0481 77.293 82.8917 77.3641 83.0693C77.3818 83.1315 77.3463 83.3534 77.2664 83.5666C77.1776 83.8329 77.1421 84.1615 77.1687 84.5877C77.2309 85.5556 77.5861 86.2305 78.554 87.2072C79.0157 87.6778 79.2554 87.9798 79.1489 87.9531C79.0512 87.9265 79.1755 88.0064 79.4153 88.1307C79.6639 88.255 79.9836 88.3705 80.1345 88.406C80.4009 88.4504 80.4187 88.477 80.4719 88.992C80.543 89.6935 80.543 91.6204 80.4631 92.8192L80.4098 93.7693L80.0546 93.867C79.069 94.1334 78.0389 94.8526 77.5062 95.6518C77.1687 96.1668 77.0622 96.4066 77.2309 96.3089C77.2753 96.2822 77.2664 96.4243 77.222 96.6374C77.0711 97.2856 77.1865 98.0671 77.5417 98.7774C77.7814 99.2747 78.0389 99.5944 78.6516 100.189C79.0867 100.607 79.3709 100.935 79.291 100.909C79.211 100.891 79.3531 100.971 79.5929 101.095C79.8415 101.21 80.1168 101.317 80.2233 101.317C80.392 101.317 80.4187 101.388 80.4719 101.859C80.543 102.56 80.543 104.247 80.4631 105.783L80.4098 107H78.1366H75.8634L75.748 106.538C75.5793 105.792 75.0732 104.869 74.5581 104.354C73.4215 103.208 71.8499 102.924 70.438 103.626C69.4435 104.114 68.5111 105.348 68.2714 106.512L68.1737 107H65.572H62.9703L62.8193 106.449C61.9402 103.288 58.6725 102.196 56.5592 104.345C56.0442 104.869 55.4404 105.997 55.3427 106.6L55.2894 107H53.0429H50.8052L50.601 106.37C50.2192 105.197 49.3845 104.194 48.3989 103.732C47.9549 103.519 47.7862 103.493 46.9604 103.493C46.1346 103.493 45.9658 103.519 45.5219 103.732C44.5362 104.194 43.7015 105.197 43.3197 106.37L43.1155 107L40.5049 106.982L37.8943 106.956L37.6989 106.378C37.2905 105.18 36.5091 104.221 35.5501 103.75C35.0617 103.519 34.9374 103.493 34.085 103.493C33.2236 103.493 33.1082 103.51 32.5754 103.768C31.572 104.238 30.6397 105.419 30.3555 106.583L30.249 107H28.18H26.1111L26.0134 106.592C25.7204 105.437 24.8058 104.274 23.7935 103.777C23.2518 103.51 23.1453 103.493 22.2751 103.493C21.4315 103.493 21.2895 103.519 20.8366 103.741C19.8332 104.238 19.0696 105.153 18.6611 106.37L18.4657 106.956H15.8285H13.1913L13.0847 106.556C12.7917 105.402 11.8327 104.194 10.8471 103.732C10.3853 103.519 10.2255 103.493 9.39968 103.493C8.57388 103.493 8.40517 103.519 7.96119 103.732C6.97555 104.194 6.09647 105.251 5.75017 106.396L5.5637 107H3.28164H0.990709L0.937431 105.783ZM77.1243 96.5042C77.0977 96.4332 77.0711 96.4598 77.0711 96.5575C77.0622 96.6552 77.0888 96.7085 77.1155 96.6729C77.1421 96.6463 77.151 96.5664 77.1243 96.5042ZM4.40047 96.2378C4.37383 96.1668 4.34719 96.1934 4.34719 96.2911C4.33832 96.3888 4.36495 96.4421 4.39159 96.4066C4.41823 96.3799 4.42711 96.3 4.40047 96.2378ZM4.1696 95.5719C4.06305 95.3943 4.04529 95.4476 4.1252 95.6784C4.16072 95.7583 4.20512 95.8027 4.22288 95.7761C4.24952 95.7583 4.22288 95.6607 4.1696 95.5719ZM5.02204 84.0727C4.99541 84.0105 4.97765 84.0549 4.97765 84.1793C4.97765 84.3036 4.99541 84.348 5.02204 84.2947C5.0398 84.2325 5.0398 84.126 5.02204 84.0727ZM77.0355 83.8951C77.0089 83.8241 76.9823 83.8507 76.9823 83.9484C76.9734 84.0461 77 84.0993 77.0267 84.0638C77.0533 84.0372 77.0622 83.9573 77.0355 83.8951ZM77.3286 83.1581C77.3286 83.1137 77.2842 83.1315 77.2398 83.2025C77.1954 83.2735 77.151 83.3801 77.151 83.4245C77.151 83.4778 77.1954 83.4511 77.2398 83.3801C77.2842 83.309 77.3286 83.2114 77.3286 83.1581ZM5.55482 59.476C5.52818 59.4139 5.51042 59.4583 5.51042 59.5826C5.51042 59.7069 5.52818 59.7513 5.55482 59.698C5.57258 59.6359 5.57258 59.5293 5.55482 59.476ZM5.02204 21.2046C4.99541 21.1336 4.96877 21.1602 4.96877 21.2579C4.95989 21.3556 4.98653 21.4089 5.01316 21.3734C5.0398 21.3467 5.04868 21.2668 5.02204 21.2046ZM5.02204 8.59552C4.99541 8.53336 4.97765 8.57776 4.97765 8.70207C4.97765 8.82639 4.99541 8.87079 5.02204 8.81751C5.0398 8.75535 5.0398 8.6488 5.02204 8.59552Z" stroke="var(--stroke-0, #EDEAE0)" stroke-width="0.35011" mask="url(#path-1-inside-1_0_60)"/>
</g>
<defs>
<filter id="filter0_d_0_60" x="0" y="0" width="81.4005" height="108.751" filterUnits="userSpaceOnUse" color-interpolation-filters="sRGB">
<feFlood flood-opacity="0" result="BackgroundImageFix"/>
<feColorMatrix in="SourceAlpha" type="matrix" values="0 0 0 0 0 0 0 0 0 0 0 0 0 0 0 0 0 0 127 0" result="hardAlpha"/>
<feOffset dy="0.875274"/>
<feGaussianBlur stdDeviation="0.437637"/>
<feComposite in2="hardAlpha" operator="out"/>
<feColorMatrix type="matrix" values="0 0 0 0 0 0 0 0 0 0 0 0 0 0 0 0 0 0 0.25 0"/>
<feBlend mode="normal" in2="BackgroundImageFix" result="effect1_dropShadow_0_60"/>
<feBlend mode="normal" in="SourceGraphic" in2="effect1_dropShadow_0_60" result="shape"/>
</filter>
</defs>
</svg>
